<?xml version="1.0" encoding="utf-8"?>
<!-- Generator: Adobe Illustrator 16.0.3, SVG Export Plug-In . SVG Version: 6.00 Build 0)  -->
<!DOCTYPE svg PUBLIC "-//W3C//DTD SVG 1.1//EN" "http://www.w3.org/Graphics/SVG/1.1/DTD/svg11.dtd">
<svg version="1.1" id="Warstwa_1" xmlns:sketch="http://www.bohemiancoding.com/sketch/ns"
	 xmlns="http://www.w3.org/2000/svg" xmlns:xlink="http://www.w3.org/1999/xlink" x="0px" y="0px" width="60px" height="300.227px"
	 viewBox="0 0 60 300.227" enable-background="new 0 0 60 300.227" xml:space="preserve">
<title></title>
<desc></desc>
<g id="black">
	<g id="slice" transform="translate(-100.000000, 0.000000)">
	</g>
	<g id="facebook" transform="translate(21.000000, 12.000000)">
		<path d="M5.448,95.98V78.666H1.929v-5.74h3.519v-3.471c0-4.684,1.399-8.059,6.526-8.059h6.098v5.729h-4.293
			c-2.15,0-2.641,1.428-2.641,2.924v2.875h6.617l-0.903,5.74h-5.714v17.314L5.448,95.98L5.448,95.98z"/>
	</g>
</g>
<g id="black_2_">
	<g id="slice_2_">
	</g>
	<g id="twitter" transform="translate(13.000000, 16.000000)">
		<path d="M28.054,1.438c-1.209-1.375-2.934-2.25-4.838-2.281c-3.66-0.063-6.629,3.031-6.629,6.906c0,0.551,0.06,1.086,0.172,1.604
			C11.25,7.309,6.364,4.439,3.096,0.115C2.526,1.15,2.198,2.362,2.198,3.66c0,2.455,1.171,4.635,2.949,5.922
			C4.061,9.533,3.04,9.205,2.146,8.664c0,0.029,0,0.061,0,0.09c0,3.43,2.284,6.307,5.316,6.977c-0.557,0.158-1.143,0.24-1.746,0.236
			c-0.428-0.002-0.843-0.051-1.248-0.135c0.844,2.813,3.292,4.864,6.192,4.932c-2.269,1.885-5.126,3.006-8.231,2.998
			c-0.535,0-1.062-0.033-1.582-0.102c2.934,2.014,6.418,3.186,10.161,3.186c12.192,0.006,18.858-10.604,18.858-19.809
			c0-0.303-0.006-0.602-0.021-0.9c1.295-0.965,2.42-2.176,3.31-3.557c-1.188,0.535-2.467,0.891-3.808,1.041
			c1.367-0.843,2.418-2.191,2.914-3.809C30.982,0.589,29.564,1.146,28.054,1.438z"/>
	</g>
</g>
<rect x="81.751" y="240.227" width="33.977" height="60"/>
<g>
	<path d="M30,142.606c-4.444,0-8.127,3.619-8.127,8.127c0,4.508,3.619,8.126,8.127,8.126c4.507,0,8.127-3.682,8.127-8.126
		S34.444,142.606,30,142.606z M30,155.939c-2.857,0-5.207-2.349-5.207-5.206s2.349-5.207,5.207-5.207
		c2.856,0,5.207,2.349,5.207,5.207S32.856,155.939,30,155.939z"/>
	<circle cx="38.444" cy="142.416" r="1.841"/>
	<path d="M43.206,137.653c-1.649-1.714-4-2.603-6.666-2.603H23.46c-5.524,0-9.207,3.683-9.207,9.207v13.016
		c0,2.731,0.889,5.08,2.666,6.795c1.714,1.65,4.001,2.476,6.604,2.476h12.953c2.729,0,5.015-0.889,6.667-2.476
		c1.714-1.651,2.604-4,2.604-6.731v-13.08C45.747,141.59,44.857,139.305,43.206,137.653z M42.825,157.336
		c0,1.969-0.57,3.556-1.715,4.635c-1.142,1.08-2.729,1.651-4.634,1.651H23.523c-1.905,0-3.492-0.571-4.635-1.651
		c-1.143-1.143-1.714-2.729-1.714-4.699v-13.016c0-1.905,0.572-3.492,1.714-4.635c1.08-1.08,2.73-1.651,4.635-1.651h13.08
		c1.904,0,3.492,0.571,4.635,1.714c1.079,1.143,1.714,2.73,1.714,4.571v13.08H42.825z"/>
</g>
<path id="Arrow_Download" fill="#FFFFFF" d="M24.559,214.395c-0.394-0.39-1.034-0.391-1.429,0l-8.274,8.193v-27.586
	c0-0.552-0.452-1-1.01-1s-1.011,0.448-1.011,1v27.586l-8.274-8.191c-0.394-0.392-1.034-0.392-1.429,0
	c-0.394,0.391-0.394,1.023,0,1.414l10,9.898c0.39,0.386,1.039,0.386,1.429,0l9.999-9.898
	C24.954,215.419,24.954,214.787,24.559,214.395C24.165,214.005,24.954,214.787,24.559,214.395z"/>
<path id="Arrow_Download_1_" fill="#231F20" d="M24.559,274.621c-0.394-0.391-1.034-0.391-1.429,0l-8.274,8.192v-27.585
	c0-0.552-0.452-1-1.01-1s-1.011,0.448-1.011,1v27.585l-8.274-8.19c-0.394-0.393-1.034-0.393-1.429,0
	c-0.394,0.391-0.394,1.022,0,1.413l10,9.898c0.39,0.387,1.039,0.387,1.429,0l9.999-9.898
	C24.954,275.646,24.954,275.012,24.559,274.621C24.165,274.23,24.954,275.012,24.559,274.621z"/>
</svg>
