<?xml version="1.0" encoding="utf-8"?>
<!-- Generator: Adobe Illustrator 16.0.3, SVG Export Plug-In . SVG Version: 6.00 Build 0)  -->
<!DOCTYPE svg PUBLIC "-//W3C//DTD SVG 1.1//EN" "http://www.w3.org/Graphics/SVG/1.1/DTD/svg11.dtd">
<svg version="1.1" id="Warstwa_1" xmlns="http://www.w3.org/2000/svg" xmlns:xlink="http://www.w3.org/1999/xlink" x="0px" y="0px"
	 width="53.705px" height="23.66px" viewBox="0 0 53.705 23.66" enable-background="new 0 0 53.705 23.66" xml:space="preserve">
<g>
	<path d="M29.366,0h4.798L48.907,7.72V0h4.798v23.66h-4.798V12.806L34.164,5.13v18.527h-4.798V0z"/>
	<path d="M0,0h12.033c1.816,0,3.392,0.189,4.724,0.568c1.332,0.378,2.437,0.926,3.315,1.642c0.877,0.717,1.53,1.589,1.959,2.619
		c0.43,1.029,0.645,2.195,0.645,3.497c0,0.878-0.105,1.713-0.318,2.505c-0.212,0.792-0.537,1.521-0.976,2.187
		s-0.992,1.259-1.658,1.778c-0.666,0.521-1.448,0.951-2.346,1.295l5.146,7.568H16.65l-4.449-6.722h-0.137l-7.266-0.015v6.736H0V0z
		 M12.154,12.775c0.908,0,1.703-0.105,2.385-0.318c0.681-0.211,1.25-0.508,1.709-0.893c0.459-0.383,0.804-0.85,1.029-1.4
		c0.229-0.55,0.342-1.163,0.342-1.839c0-1.322-0.455-2.344-1.362-3.065c-0.908-0.722-2.276-1.083-4.103-1.083H4.799v8.598H12.154z"
		/>
</g>
</svg>
